<?xml version="1.0" encoding="UTF-8" standalone="no"?>
<svg
   xmlns:dc="http://purl.org/dc/elements/1.1/"
   xmlns:cc="http://creativecommons.org/ns#"
   xmlns:rdf="http://www.w3.org/1999/02/22-rdf-syntax-ns#"
   xmlns:svg="http://www.w3.org/2000/svg"
   xmlns="http://www.w3.org/2000/svg"
   xmlns:sodipodi="http://sodipodi.sourceforge.net/DTD/sodipodi-0.dtd"
   xmlns:inkscape="http://www.inkscape.org/namespaces/inkscape"
   width="1024"
   height="700"
   viewBox="-2 -2 576.2709 390.00192"
   id="svg2"
   version="1.1"
   inkscape:version="0.48.1 r9760"
   sodipodi:docname="luaL_newstate__stub.svg">
  <metadata
     id="metadata244">
    <rdf:RDF>
      <cc:Work
         rdf:about="">
        <dc:format>image/svg+xml</dc:format>
        <dc:type
           rdf:resource="http://purl.org/dc/dcmitype/StillImage" />
      </cc:Work>
    </rdf:RDF>
  </metadata>
  <defs
     id="defs242" />
  <sodipodi:namedview
     pagecolor="#ffffff"
     bordercolor="#666666"
     borderopacity="1"
     objecttolerance="10"
     gridtolerance="10"
     guidetolerance="10"
     inkscape:pageopacity="0"
     inkscape:pageshadow="2"
     inkscape:window-width="1920"
     inkscape:window-height="1080"
     id="namedview240"
     showgrid="false"
     fit-margin-top="0"
     fit-margin-left="0"
     fit-margin-right="0"
     fit-margin-bottom="0"
     height="744.09px"
     inkscape:zoom="0.83541883"
     inkscape:cx="534.59568"
     inkscape:cy="363.21067"
     inkscape:window-x="0"
     inkscape:window-y="0"
     inkscape:window-maximized="0"
     inkscape:current-layer="svg2" />
  <g
     id="g4"
     transform="matrix(0.34424168,0,0,0.34424168,-1.6557583,-3.4996875)">
    <rect
       style="fill:#d1d1d1"
       x="0"
       y="0"
       width="1672.03"
       height="1142"
       rx="40"
       ry="40"
       id="rect6" />
    <rect
       style="fill:none;stroke:#000000;stroke-width:2;stroke-linejoin:round"
       x="0"
       y="0"
       width="1672.03"
       height="1142"
       rx="40"
       ry="40"
       id="rect8" />
  </g>
  <text
     style="font-size:10.492486px;font-style:normal;font-weight:700;text-anchor:middle;fill:#000000;font-family:DejaVu Sans"
     x="286.13718"
     y="23.912947"
     id="text10">
    <tspan
       x="286.13718"
       y="23.912947"
       id="tspan12">Situation after luaL_newstate___stub() has been called</tspan>
  </text>
  <g
     id="g14"
     transform="matrix(0.34424168,0,0,0.34424168,-1.6557583,-3.4996875)">
    <rect
       style="fill:#ffffff"
       x="639.08002"
       y="146.62399"
       width="393.85999"
       height="184"
       rx="20"
       ry="20"
       id="rect16" />
    <rect
       style="fill:none;stroke:#000000;stroke-width:2;stroke-linejoin:round"
       x="639.08002"
       y="146.62399"
       width="393.85999"
       height="184"
       rx="20"
       ry="20"
       id="rect18" />
  </g>
  <text
     style="font-size:8.16083431px;font-style:normal;font-weight:700;text-anchor:middle;fill:#000000;font-family:DejaVu Sans"
     x="286.13718"
     y="102.74846"
     id="text20">
    <tspan
       x="286.13718"
       y="102.74846"
       id="tspan22">The OCaml &quot;main&quot; program</tspan>
  </text>
  <g
     id="g24"
     transform="matrix(0.34424168,0,0,0.34424168,-1.6557583,-3.4996875)">
    <path
       style="fill:#f1ccff"
       d="M 181.462,630.681 C 124.476,628.436 13.96,675.568 29.5014,776.565 45.0426,877.562 119.296,900.005 150.379,870.829 181.462,841.652 102.028,1012.22 253.988,1057.11 405.947,1102 483.654,1030.18 461.206,978.558 438.757,926.938 594.171,1099.75 666.698,1001 739.224,902.249 592.444,807.986 623.527,821.453 654.61,834.919 749.585,816.964 718.502,648.636 687.419,480.307 407.674,610.481 438.757,585.793 469.84,561.105 392.133,437.664 295.432,462.352 198.73,487.041 191.871,531.841 181.51,630.593 l -0.048,0.088 z"
       id="path26"
       inkscape:connector-curvature="0" />
    <path
       style="fill:none;stroke:#000000;stroke-width:2"
       d="M 181.462,630.681 C 124.476,628.436 13.96,675.568 29.5014,776.565 45.0426,877.562 119.296,900.005 150.379,870.829 181.462,841.652 102.028,1012.22 253.988,1057.11 405.947,1102 483.654,1030.18 461.206,978.558 438.757,926.938 594.171,1099.75 666.698,1001 739.224,902.249 592.444,807.986 623.527,821.453 654.61,834.919 749.585,816.964 718.502,648.636 687.419,480.307 407.674,610.481 438.757,585.793 469.84,561.105 392.133,437.664 295.432,462.352 198.73,487.041 191.871,531.841 181.51,630.593 l -0.048,0.088"
       id="path28"
       inkscape:connector-curvature="0" />
    <text
       style="font-size:12.80000019px;font-style:normal;font-weight:normal;text-anchor:middle;fill:#000000;font-family:sanserif"
       x="401.492"
       y="785.54199"
       id="text30">
      <tspan
         x="401.492"
         y="785.54199"
         id="tspan32" />
    </text>
  </g>
  <g
     id="g34"
     transform="matrix(0.34424168,0,0,0.34424168,-1.6557583,-3.4996875)">
    <rect
       style="fill:#00ff00"
       x="721.15997"
       y="218.308"
       width="229.7"
       height="56"
       id="rect36" />
    <rect
       style="fill:none;stroke:#000000;stroke-width:2"
       x="721.15997"
       y="218.308"
       width="229.7"
       height="56"
       id="rect38" />
    <text
       style="font-size:16px;font-style:normal;font-weight:700;text-anchor:middle;fill:#000000;font-family:sanserif"
       x="836.01001"
       y="237.308"
       id="text40">value</text>
    <text
       style="font-size:11.19999981px;font-style:italic;font-weight:normal;text-anchor:middle;fill:#000000;font-family:sanserif"
       x="836.01001"
       y="252.808"
       id="text42">This value is returned to OCaml via the</text>
    <text
       style="font-size:11.19999981px;font-style:italic;font-weight:normal;text-anchor:middle;fill:#000000;font-family:sanserif"
       x="836.01001"
       y="266.80801"
       id="text44">CAMLreturn macro</text>
  </g>
  <text
     style="font-size:6.21776199px;font-style:normal;font-weight:normal;text-anchor:middle;fill:#000000;font-family:DejaVu Sans"
     x="286.04077"
     y="58.169102"
     id="text46">
    <tspan
       x="286.04077"
       y="58.169102"
       id="tspan48">The new state returned by</tspan>
    <tspan
       x="286.04077"
       y="65.941452"
       id="tspan50">LuaL.newstate ()</tspan>
  </text>
  <text
     style="font-size:8.16083431px;font-style:oblique;font-weight:700;text-anchor:middle;fill:#000000;font-family:DejaVu Sans"
     x="122.78761"
     y="210.4892"
     id="text52">
    <tspan
       x="122.78761"
       y="210.4892"
       id="tspan54">Outside OCaml Heap</tspan>
    <tspan
       x="122.78761"
       y="220.69012"
       id="tspan56">(malloc)</tspan>
  </text>
  <g
     id="g58"
     transform="matrix(0.34424168,0,0,0.34424168,-1.6557583,-3.4996875)">
    <rect
       style="fill:#ffffff"
       x="312.64001"
       y="669.12402"
       width="236.85001"
       height="70"
       id="rect60" />
    <rect
       style="fill:none;stroke:#000000;stroke-width:2"
       x="312.64001"
       y="669.12402"
       width="236.85001"
       height="70"
       id="rect62" />
    <text
       style="font-size:16px;font-style:normal;font-weight:700;text-anchor:middle;fill:#000000;font-family:sanserif"
       x="431.065"
       y="688.12402"
       id="text64">lua_State</text>
    <text
       style="font-size:11.19999981px;font-style:italic;font-weight:normal;text-anchor:middle;fill:#000000;font-family:sanserif"
       x="431.065"
       y="703.62402"
       id="text66">This lua_State contains a pointer to a</text>
    <text
       style="font-size:11.19999981px;font-style:italic;font-weight:normal;text-anchor:middle;fill:#000000;font-family:sanserif"
       x="431.065"
       y="717.62402"
       id="text68">block of ocaml_data, which contains two</text>
    <text
       style="font-size:11.19999981px;font-style:italic;font-weight:normal;text-anchor:middle;fill:#000000;font-family:sanserif"
       x="431.065"
       y="731.62402"
       id="text70">OCaml value</text>
    <rect
       style="fill:#ffffff"
       x="312.64001"
       y="739.12402"
       width="236.85001"
       height="69"
       id="rect72" />
    <rect
       style="fill:none;stroke:#000000;stroke-width:2"
       x="312.64001"
       y="739.12402"
       width="236.85001"
       height="69"
       id="rect74" />
    <text
       style="font-size:12.80000019px;font-style:normal;font-weight:normal;text-anchor:start;fill:#000000;font-family:monospace"
       x="315.64001"
       y="753.12402"
       id="text76">+private_data: ocaml_data</text>
    <text
       style="font-size:11.19999981px;font-style:italic;font-weight:normal;text-anchor:start;fill:#000000;font-family:sanserif"
       x="315.64001"
       y="767.62402"
       id="text78">This is not a real &quot;attribute&quot;, the</text>
    <text
       style="font-size:11.19999981px;font-style:italic;font-weight:normal;text-anchor:start;fill:#000000;font-family:sanserif"
       x="315.64001"
       y="781.62402"
       id="text80">referense is kept inside the Lua state</text>
    <text
       style="font-size:11.19999981px;font-style:italic;font-weight:normal;text-anchor:start;fill:#000000;font-family:sanserif"
       x="315.64001"
       y="795.62402"
       id="text82">registry</text>
  </g>
  <g
     id="g84"
     transform="matrix(0.34424168,0,0,0.34424168,-1.6557583,-3.4996875)">
    <path
       style="fill:#daffcc"
       d="m 949.068,583.28 c -70.616,-2.332 -207.568,46.641 -188.309,151.583 19.259,104.942 111.273,128.262 149.791,97.946 38.518,-30.316 -59.917,146.918 128.39,193.561 188.31,46.64 284.6,-27.986 256.79,-81.624 -27.82,-53.637 164.77,125.934 254.64,23.321 89.88,-102.61 -92.01,-200.555 -53.5,-186.563 38.52,13.992 156.22,-4.664 117.7,-179.567 -38.52,-174.904 -385.18,-39.645 -346.66,-65.298 38.52,-25.652 -57.78,-153.915 -177.61,-128.262 -119.834,25.652 -128.333,72.202 -141.172,174.812 l -0.06,0.091 z"
       id="path86"
       inkscape:connector-curvature="0" />
    <path
       style="fill:none;stroke:#000000;stroke-width:2"
       d="m 949.068,583.28 c -70.616,-2.332 -207.568,46.641 -188.309,151.583 19.259,104.942 111.273,128.262 149.791,97.946 38.518,-30.316 -59.917,146.918 128.39,193.561 188.31,46.64 284.6,-27.986 256.79,-81.624 -27.82,-53.637 164.77,125.934 254.64,23.321 89.88,-102.61 -92.01,-200.555 -53.5,-186.563 38.52,13.992 156.22,-4.664 117.7,-179.567 -38.52,-174.904 -385.18,-39.645 -346.66,-65.298 38.52,-25.652 -57.78,-153.915 -177.61,-128.262 -119.834,25.652 -128.333,72.202 -141.172,174.812 l -0.06,0.091"
       id="path88"
       inkscape:connector-curvature="0" />
    <text
       style="font-size:12.80000019px;font-style:normal;font-weight:normal;text-anchor:middle;fill:#000000;font-family:sanserif"
       x="1221.73"
       y="744.03497"
       id="text90">
      <tspan
         x="1221.73"
         y="744.03497"
         id="tspan92" />
    </text>
  </g>
  <text
     style="font-size:8.16083431px;font-style:oblique;font-weight:700;text-anchor:middle;fill:#000000;font-family:DejaVu Sans"
     x="499.58081"
     y="191.29431"
     id="text94">
    <tspan
       x="499.58081"
       y="191.29431"
       id="tspan96">OCaml Heap</tspan>
  </text>
  <g
     id="g98"
     transform="matrix(0.34424168,0,0,0.34424168,-1.6557583,-3.4996875)">
    <rect
       style="fill:#ffffff"
       x="212.96001"
       y="862.62402"
       width="219.14999"
       height="28"
       id="rect100" />
    <rect
       style="fill:none;stroke:#000000;stroke-width:2"
       x="212.96001"
       y="862.62402"
       width="219.14999"
       height="28"
       id="rect102" />
    <text
       style="font-size:16px;font-style:normal;font-weight:700;text-anchor:middle;fill:#000000;font-family:sanserif"
       x="322.535"
       y="881.62402"
       id="text104">ocaml_data</text>
    <rect
       style="fill:#ffffff"
       x="212.96001"
       y="890.62402"
       width="219.14999"
       height="106"
       id="rect106" />
    <rect
       style="fill:none;stroke:#000000;stroke-width:2"
       x="212.96001"
       y="890.62402"
       width="219.14999"
       height="106"
       id="rect108" />
    <text
       style="font-size:12.80000019px;font-style:normal;font-weight:normal;text-anchor:start;fill:#000000;font-family:monospace"
       x="215.96001"
       y="904.62402"
       id="text110">+state_value: value</text>
    <text
       style="font-size:11.19999981px;font-style:italic;font-weight:normal;text-anchor:start;fill:#000000;font-family:sanserif"
       x="215.96001"
       y="919.12402"
       id="text112">state_value is registered as global</text>
    <text
       style="font-size:11.19999981px;font-style:italic;font-weight:normal;text-anchor:start;fill:#000000;font-family:sanserif"
       x="215.96001"
       y="933.12402"
       id="text114">root!</text>
    <text
       style="font-size:12.80000019px;font-style:normal;font-weight:normal;text-anchor:start;fill:#000000;font-family:monospace"
       x="215.96001"
       y="955.62402"
       id="text116">+panic_callback: value</text>
    <text
       style="font-size:11.19999981px;font-style:italic;font-weight:normal;text-anchor:start;fill:#000000;font-family:sanserif"
       x="215.96001"
       y="970.12402"
       id="text118">panic_callback is registered as global</text>
    <text
       style="font-size:11.19999981px;font-style:italic;font-weight:normal;text-anchor:start;fill:#000000;font-family:sanserif"
       x="215.96001"
       y="984.12402"
       id="text120">root!</text>
  </g>
  <g
     id="g122"
     transform="matrix(0.34424168,0,0,0.34424168,-1.6557583,-3.4996875)">
    <rect
       style="fill:#ffffff"
       x="1240.6801"
       y="758.70398"
       width="217.89999"
       height="70"
       id="rect124" />
    <rect
       style="fill:none;stroke:#000000;stroke-width:2"
       x="1240.6801"
       y="758.70398"
       width="217.89999"
       height="70"
       id="rect126" />
    <text
       style="font-size:16px;font-style:normal;font-weight:700;text-anchor:middle;fill:#000000;font-family:sanserif"
       x="1349.63"
       y="777.70398"
       id="text128">value</text>
    <text
       style="font-size:11.19999981px;font-style:italic;font-weight:normal;text-anchor:middle;fill:#000000;font-family:sanserif"
       x="1349.63"
       y="793.20398"
       id="text130">this value comes from OCaml, and is</text>
    <text
       style="font-size:11.19999981px;font-style:italic;font-weight:normal;text-anchor:middle;fill:#000000;font-family:sanserif"
       x="1349.63"
       y="807.20398"
       id="text132">made available in C via</text>
    <text
       style="font-size:11.19999981px;font-style:italic;font-weight:normal;text-anchor:middle;fill:#000000;font-family:sanserif"
       x="1349.63"
       y="821.20398"
       id="text134">caml_named_value()</text>
    <rect
       style="fill:#ffffff"
       x="1240.6801"
       y="828.70398"
       width="217.89999"
       height="69"
       id="rect136" />
    <rect
       style="fill:none;stroke:#000000;stroke-width:2"
       x="1240.6801"
       y="828.70398"
       width="217.89999"
       height="69"
       id="rect138" />
    <text
       style="font-size:12.80000019px;font-style:normal;font-weight:normal;text-anchor:start;fill:#000000;font-family:monospace"
       x="1243.6801"
       y="842.70398"
       id="text140">+Data_custom_val: user data</text>
    <text
       style="font-size:11.19999981px;font-style:italic;font-weight:normal;text-anchor:start;fill:#000000;font-family:sanserif"
       x="1243.6801"
       y="857.20398"
       id="text142">Default panic callback, it's an OCaml</text>
    <text
       style="font-size:11.19999981px;font-style:italic;font-weight:normal;text-anchor:start;fill:#000000;font-family:sanserif"
       x="1243.6801"
       y="871.20398"
       id="text144">functional value provided by the</text>
    <text
       style="font-size:11.19999981px;font-style:italic;font-weight:normal;text-anchor:start;fill:#000000;font-family:sanserif"
       x="1243.6801"
       y="885.20398"
       id="text146">library</text>
  </g>
  <g
     id="g148"
     transform="matrix(0.34424168,0,0,0.34424168,-1.6557583,-3.4996875)">
    <rect
       style="fill:#74a8db"
       x="966.47998"
       y="744.26398"
       width="217.89999"
       height="42"
       id="rect150" />
    <rect
       style="fill:none;stroke:#000000;stroke-width:2"
       x="966.47998"
       y="744.26398"
       width="217.89999"
       height="42"
       id="rect152" />
    <text
       style="font-size:16px;font-style:normal;font-weight:700;text-anchor:middle;fill:#000000;font-family:sanserif"
       x="1075.4301"
       y="763.26398"
       id="text154">value</text>
    <text
       style="font-size:11.19999981px;font-style:italic;font-weight:normal;text-anchor:middle;fill:#000000;font-family:sanserif"
       x="1075.4301"
       y="778.76398"
       id="text156">This value HAS a finalizer!</text>
    <rect
       style="fill:#74a8db"
       x="966.47998"
       y="786.26398"
       width="217.89999"
       height="69"
       id="rect158" />
    <rect
       style="fill:none;stroke:#000000;stroke-width:2"
       x="966.47998"
       y="786.26398"
       width="217.89999"
       height="69"
       id="rect160" />
    <text
       style="font-size:12.80000019px;font-style:normal;font-weight:normal;text-anchor:start;fill:#000000;font-family:monospace"
       x="969.47998"
       y="800.26398"
       id="text162">+Data_custom_val: user data</text>
    <text
       style="font-size:11.19999981px;font-style:italic;font-weight:normal;text-anchor:start;fill:#000000;font-family:sanserif"
       x="969.47998"
       y="814.76398"
       id="text164">The custom block contains a</text>
    <text
       style="font-size:11.19999981px;font-style:italic;font-weight:normal;text-anchor:start;fill:#000000;font-family:sanserif"
       x="969.47998"
       y="828.76398"
       id="text166">&quot;lua_State*&quot; pointing to the actual</text>
    <text
       style="font-size:11.19999981px;font-style:italic;font-weight:normal;text-anchor:start;fill:#000000;font-family:sanserif"
       x="969.47998"
       y="842.76398"
       id="text168">lua_State</text>
  </g>
  <g
     id="g170"
     transform="matrix(0.34424168,0,0,0.34424168,-1.6557583,-3.4996875)">
    <rect
       style="fill:#74a8db"
       x="1082.48"
       y="564.50403"
       width="217.89999"
       height="42"
       id="rect172" />
    <rect
       style="fill:none;stroke:#000000;stroke-width:2"
       x="1082.48"
       y="564.50403"
       width="217.89999"
       height="42"
       id="rect174" />
    <text
       style="font-size:16px;font-style:normal;font-weight:700;text-anchor:middle;fill:#000000;font-family:sanserif"
       x="1191.4301"
       y="583.50403"
       id="text176">value</text>
    <text
       style="font-size:11.19999981px;font-style:italic;font-weight:normal;text-anchor:middle;fill:#000000;font-family:sanserif"
       x="1191.4301"
       y="599.00403"
       id="text178">This value HAS NOT a finalizer!</text>
    <rect
       style="fill:#74a8db"
       x="1082.48"
       y="606.50403"
       width="217.89999"
       height="69"
       id="rect180" />
    <rect
       style="fill:none;stroke:#000000;stroke-width:2"
       x="1082.48"
       y="606.50403"
       width="217.89999"
       height="69"
       id="rect182" />
    <text
       style="font-size:12.80000019px;font-style:normal;font-weight:normal;text-anchor:start;fill:#000000;font-family:monospace"
       x="1085.48"
       y="620.50403"
       id="text184">+Data_custom_val: user data</text>
    <text
       style="font-size:11.19999981px;font-style:italic;font-weight:normal;text-anchor:start;fill:#000000;font-family:sanserif"
       x="1085.48"
       y="635.00403"
       id="text186">The custom block contains a</text>
    <text
       style="font-size:11.19999981px;font-style:italic;font-weight:normal;text-anchor:start;fill:#000000;font-family:sanserif"
       x="1085.48"
       y="649.00403"
       id="text188">&quot;lua_State*&quot; pointing to the actual</text>
    <text
       style="font-size:11.19999981px;font-style:italic;font-weight:normal;text-anchor:start;fill:#000000;font-family:sanserif"
       x="1085.48"
       y="663.00403"
       id="text190">lua_State</text>
  </g>
  <g
     id="g192"
     transform="matrix(0.34424168,0,0,0.34424168,-1.6557583,-3.4996875)">
    <path
       style="fill:none;stroke:#000000;stroke-width:2"
       d="m 432.11,951.624 a 1414.38,1414.38 0 0 0 799.44,-50.548"
       id="path194"
       inkscape:connector-curvature="0" />
    <polygon
       style="fill:#000000"
       points="1227.47,897.297 1238.59,898.486 1230.96,906.666 1231.56,901.108 "
       id="polygon196" />
    <polygon
       style="fill:none;stroke:#000000;stroke-width:2"
       points="1227.47,897.297 1238.59,898.486 1230.96,906.666 1231.56,901.108 "
       id="polygon198" />
  </g>
  <g
     id="g200"
     transform="matrix(0.34424168,0,0,0.34424168,-1.6557583,-3.4996875)">
    <path
       style="fill:none;stroke:#000000;stroke-width:2"
       d="m 555.681,711.634 a 340.336,340.336 0 0 0 410.799,84.63"
       id="path202"
       inkscape:connector-curvature="0" />
    <polygon
       style="fill:#000000"
       points="553.234,716.801 550.888,705.87 561.041,710.551 555.575,711.724 "
       id="polygon204" />
    <polygon
       style="fill:none;stroke:#000000;stroke-width:2"
       points="553.234,716.801 550.888,705.87 561.041,710.551 555.575,711.724 "
       id="polygon206" />
  </g>
  <g
     id="g208"
     transform="matrix(0.34424168,0,0,0.34424168,-1.6557583,-3.4996875)">
    <path
       style="fill:none;stroke:#000000;stroke-width:2"
       d="M 1082.48,616.504 A 462.846,462.846 0 0 0 556.441,697.309"
       id="path210"
       inkscape:connector-curvature="0" />
    <polygon
       style="fill:#000000"
       points="561.675,699 551.07,702.542 554.6,691.933 556.37,697.236 "
       id="polygon212" />
    <polygon
       style="fill:none;stroke:#000000;stroke-width:2"
       points="561.675,699 551.07,702.542 554.6,691.933 556.37,697.236 "
       id="polygon214" />
  </g>
  <g
     id="g216"
     transform="matrix(0.34424168,0,0,0.34424168,-1.6557583,-3.4996875)">
    <path
       style="fill:none;stroke:#000000;stroke-width:2"
       d="m 836.01,274.308 a 1748.63,1748.63 0 0 0 233.76,462.031"
       id="path218"
       inkscape:connector-curvature="0" />
    <polygon
       style="fill:#000000"
       points="1072.36,731.408 1074.13,742.447 1064.23,737.239 1069.75,736.355 "
       id="polygon220" />
    <polygon
       style="fill:none;stroke:#000000;stroke-width:2"
       points="1072.36,731.408 1074.13,742.447 1064.23,737.239 1069.75,736.355 "
       id="polygon222" />
  </g>
  <g
     id="g224"
     transform="matrix(0.34424168,0,0,0.34424168,-1.6557583,-3.4996875)">
    <path
       style="fill:none;stroke:#000000;stroke-width:2"
       d="M 432.11,900.624 A 2970.38,2970.38 0 0 0 1073.7,679.719"
       id="path226"
       inkscape:connector-curvature="0" />
    <polygon
       style="fill:#000000"
       points="1069.29,676.315 1080.47,676.475 1073.63,685.323 1073.71,679.733 "
       id="polygon228" />
    <polygon
       style="fill:none;stroke:#000000;stroke-width:2"
       points="1069.29,676.315 1080.47,676.475 1073.63,685.323 1073.71,679.733 "
       id="polygon230" />
  </g>
  <g
     id="g232"
     transform="matrix(0.34424168,0,0,0.34424168,-1.6557583,-3.4996875)">
    <path
       style="fill:none;stroke:#000000;stroke-width:2"
       d="M 431.065,808.124 A 192.298,192.298 0 0 0 329.576,855.913"
       id="path234"
       inkscape:connector-curvature="0" />
    <polygon
       style="fill:#000000"
       points="334.716,857.492 324.114,861.041 327.636,850.43 329.411,855.731 "
       id="polygon236" />
    <polygon
       style="fill:none;stroke:#000000;stroke-width:2"
       points="334.716,857.492 324.114,861.041 327.636,850.43 329.411,855.731 "
       id="polygon238" />
  </g>
</svg>
